<svg fill="none" height="549" viewBox="0 0 1006 549" width="1006" xmlns="http://www.w3.org/2000/svg"><g fill="#fff" opacity=".03"><path d="m925.269 236.023-130.579-23.1-77.231-13.598-2.179-.349 4.184-5.317 5.056-6.451 49.511-63.632-41.841 32.513-21.792 16.998-16.911 13.163-10.024-50.907-1.307-6.799-21.27-108.0882-21.269 108.0882-11.332 57.618-16.91-13.162-63.633-49.511 49.511 63.632 9.153 11.768-79.41 14.034-131.276 23.187-2.528.436 2.528.435 131.276 23.187 77.841 13.773 1.569.261-2.964 3.836-6.189 7.932-49.511 63.633 42.538-33.124 21.095-16.388 16.91-13.162 10.286 52.562 1.046 5.056 21.269 108.088 21.27-108.088 11.331-57.618 16.911 13.162 63.633 49.512-49.511-63.633-9.153-11.768 79.41-14.034 130.579-23.099 3.225-.611zm-295.24.523c0-17.085 13.772-30.858 30.857-30.858 17.086 0 30.858 13.773 30.858 30.858 0 17.084-13.86 30.857-30.858 30.857-17.085 0-30.857-13.773-30.857-30.857z" opacity=".35"/><path d="m978.703 102.13c-17.434-41.1437-42.277-78.1031-74.006-109.74516-31.73-31.72924-68.602-56.57224-109.745-74.00584-18.567-7.8452-37.657-14.0341-57.096-18.48 1.221-5.491 1.831-11.157 1.831-16.998 0-43.671-35.478-79.148-79.149-79.148-43.672 0-79.149 35.477-79.149 79.148 0 5.841.61 11.507 1.83 16.998-19.438 4.4459-38.528 10.6348-57.095 18.48-41.144 17.4336-78.103 42.2766-109.745 74.00584-31.73 31.72926-56.573 68.60146-74.006 109.74516-18.044 42.625-27.11 87.865-27.11 134.413 0 46.635 9.153 91.876 27.11 134.414 17.433 41.143 42.276 78.102 74.006 109.745 31.729 31.729 68.601 56.572 109.745 74.005 42.625 18.044 87.866 27.11 134.414 27.11 46.635 0 91.875-9.153 134.414-27.11 41.143-17.346 78.103-42.276 109.745-74.005 31.729-31.73 56.572-68.602 74.006-109.745 18.044-42.626 27.107-87.866 27.107-134.414.09-46.548-9.063-91.788-27.107-134.413zm-318.165-253.573c19.003 0 34.431 15.429 34.431 34.432 0 3.399-.523 6.712-1.394 9.85-4.272 14.2081-17.434 24.5811-32.95 24.5811-15.603 0-28.766-10.373-32.95-24.5811-.959-3.138-1.394-6.451-1.394-9.85-.175-19.09 15.254-34.432 34.257-34.432zm187.238 575.224c-50.035 50.034-116.545 77.579-187.238 77.579-41.667 0-81.939-9.588-118.114-27.719-1.569-.785-3.225-1.569-4.794-2.441-23.361-12.291-45.066-28.155-64.33-47.419-49.948-49.861-77.406-116.196-77.58-186.802v-.872c.087-70.519 27.632-136.8539 77.58-186.8013 50.035-50.034567 116.544-77.5797 187.238-77.5797 41.928 0 82.374 9.6756 118.81 27.98097 1.657.784516 3.226 1.65619 4.795 2.4407 23.187 12.20353 44.63 28.06823 63.633 47.07083 49.86 49.8603 77.405 116.1085 77.58 186.6275v1.133c-.175 70.693-27.72 136.941-77.58 186.802z"/><path d="m779.262-.204523-95.885 135.459523-60.321 85.251-18.218 53.521-1.395 4.097-13.162 38.528-52.737 154.637-5.927 17.433 10.721-14.905 96.234-134.065 59.536-82.897 19.439-57.444 1.917-5.753 12.727-37.57 51.952-153.76465 6.015-17.69515zm-118.375 267.606523c-17.085 0-30.857-13.772-30.857-30.857s13.772-30.858 30.857-30.858 30.858 13.773 30.858 30.858-13.86 30.857-30.858 30.857z"/><path d="m32.901 584c-37.73729 0-71.3784-4.706-100.9233-14.117-29.4577-9.412-55.0807-21.786-76.6947-37.124-21.614-15.337-39.916-33.027-54.906-52.983-14.904-20.044-26.321-40.261-34.164-60.74l138.05-58.997c13.3344 29.891 31.288 52.113 53.6863 66.666 22.3984 14.553 47.41131 21.873 74.9517 21.873 28.3247 0 50.7231-5.142 67.282-15.337 16.559-10.196 24.752-22.397 24.752-36.514 0-15.686-6.885-28.496-20.656-38.256-13.7698-9.76-37.5626-18.649-71.378-26.492l-81.401-17.69c-18.1278-3.922-36.7786-10.196-56.039-18.824-19.261-8.627-36.779-19.694-52.467-33.027-15.687-13.333-28.673-29.455-38.957-48.365-10.197-18.823-15.339-40.871-15.339-66.056 0-28.321 6.101-53.419 18.302-75.4665 12.202-22.0475 28.935-40.6963 50.113-56.0337 21.266-15.33741 46.1914-27.1019 74.9519-35.3806 28.6733-8.2787 59.61268-12.3745 92.6437-12.3745 55.0808 0 104.2354 10.8059 147.4634 32.50484 43.228 21.61176 75.126 56.03376 95.607 103.26546l-133.345 54.291c-11.068-22.831-27.191-39.302-48.3696-49.585-21.2654-10.1956-42.4436-15.3371-63.7089-15.3371-22.04976 0-41.3106 4.5315-57.7825 13.5071-16.5591 9.063-24.7515 20.566-24.7515 34.684 0 13.333 6.8851 23.877 20.6553 31.72s32.42094 14.902 56.0394 21.176l88.5478 21.176c59.002 14.118 102.84 36.775 131.601 67.798 28.673 31.024 43.054 67.799 43.054 110.238 0 25.185-5.927 49.149-17.693 71.894-11.765 22.745-28.499 43.049-50.113 60.739-21.614 17.691-47.585 31.634-77.914 41.83-30.504 10.283-64.1451 15.337-101.098 15.337z"/></g></svg>