<svg xmlns="http://www.w3.org/2000/svg" width="20" height="20" fill="#157a4c"><path d="M11.515 10.157c.032-.025.046-.074.046-.144v-.46c0-.127-.07-.186-.2-.186h-.534v-3.55c0-.33-.162-.5-.485-.5h-.056a1.72 1.72 0 0 0-.63.144L8.8 5.8c-.074.035-.1.08-.1.137 0 .05.056.225.165.534.025.067.067.102.13.102a.41.41 0 0 0 .165-.035l.686-.26v3.1h-.682c-.14 0-.2.063-.2.186V10c0 .13.07.193.2.193h2.2c.074-.004.127-.014.158-.04zm5.7 5.883l-2.134-3.696a6.72 6.72 0 0 0 1.807-4.592A6.76 6.76 0 0 0 10.126 1a6.76 6.76 0 0 0-6.751 6.751 6.72 6.72 0 0 0 1.807 4.592L3.05 16.04c-.077.13-.067.295.028.415a.38.38 0 0 0 .394.134l2.92-.78.78 2.915c.04.148.162.257.313.274a.28.28 0 0 0 .05.003c.134 0 .257-.07.324-.186l2.268-3.935 2.27 3.935c.067.116.193.186.323.186.018 0 .032 0 .05-.003.15-.02.274-.127.313-.274l.78-2.92 2.92.78c.148.04.302-.014.394-.134a.36.36 0 0 0 .028-.411zM7.66 17.657l-.643-2.405c-.053-.2-.26-.32-.46-.264l-2.405.643 1.593-2.75c1.03.883 2.328 1.46 3.752 1.593L7.66 17.657zM4.127 7.75a6.01 6.01 0 0 1 6.002-6.002 6.01 6.01 0 0 1 6.002 6.002 6.01 6.01 0 0 1-6.002 6.002A6.01 6.01 0 0 1 4.127 7.75zm9.57 7.237a.38.38 0 0 0-.461.264l-.643 2.405-1.84-3.182a6.68 6.68 0 0 0 3.76-1.593l1.6 2.75-2.405-.643z"/></svg>