<svg fill="none" height="19" viewBox="0 0 19 19" width="19" xmlns="http://www.w3.org/2000/svg"><path d="m19 7.67708c0-1.02783-.8338-1.86404-1.8587-1.86404h-4.4826l.6526-1.78541c.0021-.00576.0041-.0115.006-.0173.3145-.94611.2354-1.93881-.2289-2.87103-.3504-.702756-1.0546-1.1393-1.8378-1.1393h-.2177c-.5274 0-.9735.41321-1.0157.940599-.07371.922251-.46814 1.795791-1.11062 2.460021l-3.58988 3.65514h-.36019v-.62136c0-.34313-.27739-.62136-.61957-.62136h-3.717362c-.342185 0-.619578.27823-.619578.62136v11.1842c0 .3432.277393.6214.619578.6214h3.717392c.34215 0 .61958-.2782.61958-.6214v-.6213h10.32605c1.0249 0 1.8587-.8362 1.8587-1.8641 0-.3321-.0869-.6441-.2394-.9145.5162-.3315.859-.9118.859-1.5709 0-.3321-.087-.6441-.2394-.9145.5162-.3315.859-.9118.859-1.5709 0-.33207-.087-.64413-.2394-.91447.5161-.33148.8589-.91176.8589-1.57085zm-15.28261 0v8.69882.6214h-2.47827v-9.94154h2.47827zm13.42391.62136h-.6196-1.2391c-.3421 0-.6196.27819-.6196.62136s.2774.62136.6196.62136h1.2391c.3417 0 .6196.27874.6196.62134s-.2779.6214-.6196.6214h-.6196-1.2391c-.3421 0-.6196.2782-.6196.6213 0 .3432.2774.6214.6196.6214h1.2391c.3417 0 .6196.2787.6196.6214 0 .3426-.2779.6213-.6196.6213h-.6195c-.0325 0-.0641.0033-.0953.0081h-1.185c-.3422 0-.6196.2782-.6196.6213 0 .3432.2774.6214.6196.6214h1.2391c.0278 0 .0549-.0025.0818-.006.3227.0211.5789.2904.5789.6193 0 .3426-.2779.6213-.6195.6213h-10.32609v-7.4563h.61958c.16595 0 .32493-.06676.44142-.18534l3.77354-3.84214c.00104-.00105.00208-.00213.00304-.00317.79631-.8224 1.30241-1.88998 1.43811-3.02514h.0184c.3108 0 .5904.17335.7293.45217.3174.63718.3727 1.28113.1646 1.91425l-.9545 2.61149c-.0697.19058-.0421.40327.0738.56966.1159.1664.3055.26554.5079.26554h5.3696c.3416 0 .6196.27875.6196.62136s-.278.62136-.6196.62136z" fill="#157a4c"/></svg>