<svg xmlns="http://www.w3.org/2000/svg" width="140" height="40" fill="none"><g clip-path="url(#A)"><g fill="#157a4c"><path d="M30.57 7.278a1.39 1.39 0 0 0-1.385 1.385c0 .135.018.268.058.397.172.582.72.99 1.33.99s1.154-.406 1.33-.99c.037-.13.06-.262.06-.397-.003-.764-.628-1.385-1.392-1.385zm1.034 1.693c-.132.446-.545.77-1.034.77a1.08 1.08 0 0 1-1.034-.77c-.03-.1-.046-.203-.046-.308 0-.597.483-1.078 1.078-1.078s1.078.483 1.078 1.078c.006.108-.012.21-.04.308zM30.57 7.278a1.39 1.39 0 0 0-1.385 1.385c0 .135.018.268.058.397.172.582.72.99 1.33.99s1.154-.406 1.33-.99c.037-.13.06-.262.06-.397-.003-.764-.628-1.385-1.392-1.385zm1.034 1.693c-.132.446-.545.77-1.034.77a1.08 1.08 0 0 1-1.034-.77c-.03-.1-.046-.203-.046-.308 0-.597.483-1.078 1.078-1.078s1.078.483 1.078 1.078c.006.108-.012.21-.04.308zM30.57 7.278a1.39 1.39 0 0 0-1.385 1.385c0 .135.018.268.058.397.172.582.72.99 1.33.99s1.154-.406 1.33-.99c.037-.13.06-.262.06-.397-.003-.764-.628-1.385-1.392-1.385zm1.034 1.693c-.132.446-.545.77-1.034.77a1.08 1.08 0 0 1-1.034-.77c-.03-.1-.046-.203-.046-.308 0-.597.483-1.078 1.078-1.078s1.078.483 1.078 1.078c.006.108-.012.21-.04.308z"/><path d="M30.57 7.278a1.39 1.39 0 0 0-1.385 1.385c0 .135.018.268.058.397.172.582.72.99 1.33.99s1.154-.406 1.33-.99c.037-.13.06-.262.06-.397-.003-.764-.628-1.385-1.392-1.385zm.74 1.607c-.095.323-.4.55-.74.55s-.643-.228-.74-.55a.76.76 0 0 1-.031-.222.77.77 0 0 1 .77-.77.77.77 0 0 1 .77.77c.003.074-.01.148-.03.222zm-.74-1.607a1.39 1.39 0 0 0-1.385 1.385c0 .135.018.268.058.397.172.582.72.99 1.33.99s1.154-.406 1.33-.99c.037-.13.06-.262.06-.397-.003-.764-.628-1.385-1.392-1.385zm.74 1.607c-.095.323-.4.55-.74.55s-.643-.228-.74-.55a.76.76 0 0 1-.031-.222.77.77 0 0 1 .77-.77.77.77 0 0 1 .77.77c.003.074-.01.148-.03.222zm-.74-1.607a1.39 1.39 0 0 0-1.385 1.385c0 .135.018.268.058.397.172.582.72.99 1.33.99s1.154-.406 1.33-.99c.037-.13.06-.262.06-.397-.003-.764-.628-1.385-1.392-1.385zm.74 1.607c-.095.323-.4.55-.74.55s-.643-.228-.74-.55a.76.76 0 0 1-.031-.222.77.77 0 0 1 .77-.77.77.77 0 0 1 .77.77c.003.074-.01.148-.03.222zm-.74-1.607a1.39 1.39 0 0 0-1.385 1.385c0 .135.018.268.058.397.172.582.72.99 1.33.99s1.154-.406 1.33-.99c.037-.13.06-.262.06-.397-.003-.764-.628-1.385-1.392-1.385zm.74 1.607c-.095.323-.4.55-.74.55s-.643-.228-.74-.55a.76.76 0 0 1-.031-.222.77.77 0 0 1 .77-.77.77.77 0 0 1 .77.77c.003.074-.01.148-.03.222zm-.74-1.607a1.39 1.39 0 0 0-1.385 1.385c0 .135.018.268.058.397.172.582.72.99 1.33.99s1.154-.406 1.33-.99c.037-.13.06-.262.06-.397-.003-.764-.628-1.385-1.392-1.385zm.74 1.607c-.095.323-.4.55-.74.55s-.643-.228-.74-.55a.76.76 0 0 1-.031-.222.77.77 0 0 1 .77-.77.77.77 0 0 1 .77.77c.003.074-.01.148-.03.222z"/><path d="M41.49 17.54c-.148-.724-.366-1.432-.656-2.12-.56-1.327-1.364-2.518-2.386-3.54s-2.213-1.826-3.54-2.386a10.86 10.86 0 0 0-1.564-.526c.012-.1.015-.2.015-.302 0-1.54-1.253-2.79-2.79-2.79s-2.792 1.253-2.792 2.79c0 .102.006.2.015.302a11.21 11.21 0 0 0-1.561.526c-1.327.56-2.518 1.364-3.54 2.386s-1.826 2.214-2.386 3.54c-.582 1.373-.874 2.832-.874 4.338a11.08 11.08 0 0 0 .877 4.338c.56 1.327 1.364 2.518 2.386 3.54s2.214 1.826 3.54 2.386c1.373.582 2.832.874 4.338.874a11.12 11.12 0 0 0 4.338-.874c1.327-.56 2.518-1.364 3.54-2.386s1.826-2.214 2.386-3.54c.582-1.376.877-2.835.877-4.338-.003-.75-.077-1.493-.225-2.217zm-10.92-5.782c1.265 0 2.472.283 3.6.847l.145.074c.705.372 1.352.85 1.92 1.422a7.95 7.95 0 0 1 2.343 5.637v.037a8.01 8.01 0 0 1-.61 3.054 8.04 8.04 0 0 1-1.733 2.586 7.94 7.94 0 0 1-5.655 2.343 7.87 7.87 0 0 1-3.568-.837l-.145-.074c-.71-.376-1.367-.856-1.943-1.432-1.505-1.506-2.34-3.5-2.343-5.64v-.028c.006-2.137.837-4.138 2.343-5.646 1.512-1.512 3.52-2.343 5.656-2.343zm0-4.48a1.39 1.39 0 0 1 1.385 1.385c0 .135-.02.268-.06.397-.172.582-.72.99-1.33.99s-1.155-.406-1.33-.99c-.037-.13-.058-.262-.058-.397.006-.764.628-1.385 1.392-1.385z"/></g><path d="M54.077 39.854c-1.444 0-2.73-.188-3.855-.56s-2.106-.86-2.937-1.453-1.527-1.253-2.084-1.973-.958-1.44-1.2-2.164l5.2-2.084c.388 1.084 1.028 1.924 1.918 2.52a5.19 5.19 0 0 0 2.959.896c1.724 0 3.085-.56 4.085-1.684s1.5-2.666 1.5-4.627V27.31h-.332c-.637.9-1.48 1.592-2.522 2.106s-2.272.77-3.688.77a8.95 8.95 0 0 1-3.565-.742c-1.154-.496-2.174-1.204-3.063-2.124s-1.6-2.03-2.167-3.32-.834-2.737-.834-4.33.277-3.045.834-4.35 1.278-2.42 2.167-3.34 1.912-1.63 3.063-2.124a8.94 8.94 0 0 1 3.565-.742c1.416 0 2.648.26 3.688.77s1.884 1.213 2.522 2.103h.332V9.778h5.2v18.96c0 1.72-.265 3.27-.8 4.646s-1.265 2.54-2.208 3.5-2.078 1.693-3.396 2.207c-1.32.508-2.786.763-4.4.763zm.2-14.593a5.63 5.63 0 0 0 1.98-.366 5.09 5.09 0 0 0 1.73-1.084c.5-.477.902-1.062 1.2-1.758s.46-1.5.46-2.4-.154-1.703-.46-2.4-.708-1.3-1.2-1.776a5.06 5.06 0 0 0-1.73-1.084 5.58 5.58 0 0 0-1.98-.366 5.47 5.47 0 0 0-1.958.366c-.638.243-1.2.613-1.7 1.102s-.905 1.084-1.2 1.776-.46 1.5-.46 2.4.154 1.696.46 2.4.708 1.28 1.2 1.758a5.12 5.12 0 0 0 1.709 1.084 5.35 5.35 0 0 0 1.958.37zm27.098 2.253h-.333c-.64 1.028-1.502 1.84-2.583 2.438s-2.32.896-3.7.896c-2.583 0-4.507-.8-5.773-2.374s-1.897-3.7-1.897-6.33V9.772h5.462v11.693c0 1.472.326 2.558.98 3.266s1.604 1.062 2.854 1.062c.75 0 1.4-.16 1.98-.477s1.056-.748 1.46-1.3.708-1.18.917-1.915.314-1.518.314-2.352V9.772h5.456v20.4h-5.126v-2.666zm10.757-20.5c-.474 0-.924-.1-1.355-.27a3.49 3.49 0 0 1-1.127-.751 3.51 3.51 0 0 1-.75-1.105c-.18-.418-.27-.874-.27-1.376s.1-.957.27-1.376a3.5 3.5 0 0 1 .75-1.105A3.49 3.49 0 0 1 90.787.27c.43-.182.88-.27 1.355-.27a3.44 3.44 0 0 1 2.5 1.022A3.34 3.34 0 0 1 95.685 3.5a3.34 3.34 0 0 1-1.044 2.481 3.44 3.44 0 0 1-2.5 1.022zm-2.7 23.176V9.772h5.46v20.4h-5.46zm23.386-2.456h-.332c-.502.862-1.278 1.598-2.334 2.207s-2.36.914-3.92.914a8.85 8.85 0 0 1-3.731-.813c-1.183-.542-2.223-1.3-3.125-2.247s-1.62-2.103-2.146-3.436-.8-2.8-.8-4.372.265-3.04.8-4.372 1.244-2.478 2.146-3.436a9.93 9.93 0 0 1 3.125-2.247 8.84 8.84 0 0 1 3.731-.813c1.555 0 2.863.305 3.92.917s1.835 1.348 2.334 2.2h.332l-.332-2.92V.333h5.458V30.18h-5.126v-2.457zm-5.46-1.93c.723 0 1.4-.132 2.062-.394s1.23-.643 1.73-1.142.902-1.108 1.2-1.83.458-1.536.458-2.45-.154-1.73-.458-2.45-.7-1.33-1.2-1.83a5.03 5.03 0 0 0-1.73-1.142 5.49 5.49 0 0 0-2.062-.394 5.23 5.23 0 0 0-2.063.416 5.45 5.45 0 0 0-1.73 1.164c-.502.5-.905 1.108-1.2 1.83s-.46 1.524-.46 2.4.154 1.7.46 2.4.708 1.33 1.2 1.83 1.077.887 1.73 1.164a5.35 5.35 0 0 0 2.063.41zm32.306-.518a11.42 11.42 0 0 1-3.814 4.033c-1.598 1.025-3.55 1.536-5.856 1.536-1.558 0-2.995-.27-4.313-.813s-2.466-1.3-3.44-2.27-1.73-2.118-2.272-3.436-.813-2.768-.813-4.353a11.18 11.18 0 0 1 .791-4.184 10.74 10.74 0 0 1 2.208-3.457c.942-.988 2.063-1.77 3.356-2.352s2.715-.874 4.273-.874c1.64 0 3.097.27 4.378.813s2.35 1.293 3.2 2.25 1.514 2.1 1.958 3.4.668 2.725.668 4.252v.5a2.77 2.77 0 0 0-.04.459c-.028.14-.04.293-.04.46h-15.38c.1.83.338 1.55.686 2.143a5.31 5.31 0 0 0 1.293 1.5 5.05 5.05 0 0 0 1.687.874 6.55 6.55 0 0 0 1.875.27c1.25 0 2.285-.283 3.107-.856a6.25 6.25 0 0 0 1.939-2.146l4.538 2.254zm-4.96-7.924c-.028-.36-.148-.764-.355-1.207s-.514-.862-.917-1.25-.905-.708-1.502-.957-1.312-.376-2.146-.376c-1.167 0-2.195.332-3.085 1s-1.515 1.598-1.875 2.8h9.88zM9.42 30.845c-1.333 0-2.52-.166-3.565-.5s-1.946-.77-2.7-1.3-1.4-1.167-1.94-1.872S.277 25.74 0 25.017l4.877-2.084c.47 1.056 1.105 1.84 1.896 2.355a4.76 4.76 0 0 0 2.648.773c1 0 1.792-.182 2.377-.542s.874-.8.874-1.3c0-.554-.243-1.007-.73-1.35s-1.327-.66-2.52-.936l-2.875-.625c-.64-.14-1.3-.36-1.98-.665a7.73 7.73 0 0 1-1.853-1.167c-.554-.47-1.013-1.04-1.376-1.7s-.542-1.444-.542-2.334c0-1 .216-1.887.647-2.666s1.022-1.438 1.77-1.98 1.632-.957 2.648-1.25S7.965 9.1 9.13 9.1c1.946 0 3.682.382 5.2 1.148s2.654 1.98 3.377 3.648l-4.7 1.918c-.4-.807-.96-1.4-1.7-1.752s-1.5-.542-2.25-.542c-.78 0-1.46.16-2.04.477s-.874.727-.874 1.225c0 .47.243.844.73 1.12s1.145.526 1.98.748l3.128.748c2.084.5 3.633 1.3 4.65 2.395s1.52 2.395 1.52 3.895c0 .9-.2 1.736-.625 2.54s-1.007 1.52-1.77 2.146-1.68 1.117-2.752 1.478c-1.078.363-2.266.542-3.57.542z" fill="#003047"/><g fill="#157a4c"><path opacity=".35" d="M38.878 19.737l-6.585-1.164.13-.166.157-.203 1.552-1.995-1.995 1.552-.53.413-.314-1.595-.04-.212-.668-3.393-1.022 5.2-2.524-1.964 1.552 1.995.29.37-6.693 1.182.08.015 6.6 1.167-.092.12-1.746 2.244 2.524-1.964 1.022 5.2.668-3.4.354-1.807.53.413 1.995 1.552-1.838-2.364 6.687-1.182-.102-.022zm-9.264.018c0-.536.434-.967.967-.967s.967.434.967.967-.434.967-.967.967-.967-.43-.967-.967z"/><path d="M34.297 12.33l-4.9 6.924-.573 1.678-.043.13-.413 1.207-1.838 5.397.336-.468 4.883-6.804.67-1.98.397-1.18 1.816-5.38-.336.474zm-3.713 8.393c-.536 0-.967-.434-.967-.967s.434-.967.967-.967.967.434.967.967-.434.967-.967.967z"/></g></g><defs><clipPath id="A"><path fill="#fff" d="M0 0h140v39.854H0z"/></clipPath></defs></svg>