<svg xmlns="http://www.w3.org/2000/svg" width="140" height="40" fill="none"><g clip-path="url(#A)" fill="#fff"><path d="M30.533 7.265c-.77 0-1.383.626-1.383 1.383a1.29 1.29 0 0 0 .052.391c.17.587.717.99 1.33.99s1.148-.404 1.33-.99c.04-.13.052-.26.052-.39 0-.756-.626-1.383-1.383-1.383zm1.03 1.696a1.08 1.08 0 0 1-1.03.77 1.08 1.08 0 0 1-1.03-.77 1.14 1.14 0 0 1-.039-.313 1.08 1.08 0 1 1 2.165 0l-.065.313zm-1.03-1.696c-.77 0-1.383.626-1.383 1.383a1.29 1.29 0 0 0 .052.391c.17.587.717.99 1.33.99s1.148-.404 1.33-.99c.04-.13.052-.26.052-.39 0-.756-.626-1.383-1.383-1.383zm1.03 1.696a1.08 1.08 0 0 1-1.03.77 1.08 1.08 0 0 1-1.03-.77 1.14 1.14 0 0 1-.039-.313 1.08 1.08 0 1 1 2.165 0l-.065.313zm-1.03-1.696c-.77 0-1.383.626-1.383 1.383a1.29 1.29 0 0 0 .052.391c.17.587.717.99 1.33.99s1.148-.404 1.33-.99c.04-.13.052-.26.052-.39 0-.756-.626-1.383-1.383-1.383zm1.03 1.696a1.08 1.08 0 0 1-1.03.77 1.08 1.08 0 0 1-1.03-.77 1.14 1.14 0 0 1-.039-.313 1.08 1.08 0 1 1 2.165 0l-.065.313z"/><path d="M30.533 7.265c-.77 0-1.383.626-1.383 1.383a1.29 1.29 0 0 0 .052.391c.17.587.717.99 1.33.99s1.148-.404 1.33-.99c.04-.13.052-.26.052-.39 0-.756-.626-1.383-1.383-1.383zm.73 1.604c-.09.326-.404.548-.744.548s-.64-.222-.743-.548c-.026-.065-.026-.143-.026-.222a.76.76 0 1 1 1.539 0 .42.42 0 0 1-.026.222zm-.73-1.604c-.77 0-1.383.626-1.383 1.383a1.29 1.29 0 0 0 .052.391c.17.587.717.99 1.33.99s1.148-.404 1.33-.99c.04-.13.052-.26.052-.39 0-.756-.626-1.383-1.383-1.383zm.73 1.604c-.09.326-.404.548-.744.548s-.64-.222-.743-.548c-.026-.065-.026-.143-.026-.222a.76.76 0 1 1 1.539 0 .42.42 0 0 1-.026.222zm-.73-1.604c-.77 0-1.383.626-1.383 1.383a1.29 1.29 0 0 0 .052.391c.17.587.717.99 1.33.99s1.148-.404 1.33-.99c.04-.13.052-.26.052-.39 0-.756-.626-1.383-1.383-1.383zm.73 1.604c-.09.326-.404.548-.744.548s-.64-.222-.743-.548c-.026-.065-.026-.143-.026-.222a.76.76 0 1 1 1.539 0 .42.42 0 0 1-.026.222zm-.73-1.604c-.77 0-1.383.626-1.383 1.383a1.29 1.29 0 0 0 .052.391c.17.587.717.99 1.33.99s1.148-.404 1.33-.99c.04-.13.052-.26.052-.39 0-.756-.626-1.383-1.383-1.383zm.73 1.604c-.09.326-.404.548-.744.548s-.64-.222-.743-.548c-.026-.065-.026-.143-.026-.222a.76.76 0 1 1 1.539 0 .42.42 0 0 1-.026.222zm-.73-1.604c-.77 0-1.383.626-1.383 1.383a1.29 1.29 0 0 0 .052.391c.17.587.717.99 1.33.99s1.148-.404 1.33-.99c.04-.13.052-.26.052-.39 0-.756-.626-1.383-1.383-1.383zm.73 1.604c-.09.326-.404.548-.744.548s-.64-.222-.743-.548c-.026-.065-.026-.143-.026-.222a.76.76 0 1 1 1.539 0 .42.42 0 0 1-.026.222z"/><path d="M41.437 17.516a10.96 10.96 0 0 0-.652-2.113 10.85 10.85 0 0 0-2.387-3.535c-1.017-1.017-2.217-1.826-3.535-2.387a11.01 11.01 0 0 0-1.565-.522c.013-.104.013-.196.013-.3 0-1.54-1.252-2.8-2.8-2.8s-2.8 1.252-2.8 2.8l.013.3c-.535.13-1.056.313-1.565.522a10.84 10.84 0 0 0-3.535 2.387c-1.017 1.017-1.826 2.204-2.387 3.535-.587 1.37-.874 2.83-.874 4.33s.3 2.96.874 4.33a10.85 10.85 0 0 0 2.387 3.535c1.017 1.017 2.217 1.826 3.535 2.387 1.37.587 2.83.874 4.33.874s2.96-.3 4.33-.874a10.85 10.85 0 0 0 3.534-2.387c1.017-1.017 1.826-2.204 2.387-3.535.587-1.37.874-2.83.874-4.33.026-.756-.052-1.5-.196-2.217zm-10.904-5.778a7.93 7.93 0 0 1 3.587.848l.144.078c.704.365 1.343.848 1.917 1.422a7.93 7.93 0 0 1 2.335 5.634v.04a7.8 7.8 0 0 1-.613 3.052c-.4.952-.978 1.826-1.735 2.583a7.91 7.91 0 0 1-5.647 2.335 7.98 7.98 0 0 1-3.561-.835l-.143-.078a8.06 8.06 0 0 1-1.943-1.435 7.93 7.93 0 0 1-2.335-5.634v-.026a7.93 7.93 0 0 1 2.335-5.634 7.95 7.95 0 0 1 5.661-2.348zm0-4.474c.77 0 1.383.626 1.383 1.383a1.28 1.28 0 0 1-.052.39c-.17.587-.717 1-1.33 1s-1.148-.404-1.33-1a1.31 1.31 0 0 1-.052-.39c-.013-.756.613-1.383 1.383-1.383zm23.464 32.53c-1.448 0-2.726-.183-3.848-.56s-2.1-.86-2.935-1.448c-.835-.6-1.526-1.252-2.087-1.97s-.952-1.435-1.213-2.165l5.204-2.087c.4 1.082 1.03 1.917 1.917 2.517s1.878.9 2.96.9c1.722 0 3.078-.56 4.082-1.683s1.5-2.66 1.5-4.617v-1.4h-.34a6.62 6.62 0 0 1-2.517 2.1c-1.044.5-2.27.77-3.678.77-1.226 0-2.413-.248-3.56-.743s-2.165-1.2-3.065-2.126c-.887-.926-1.604-2.022-2.165-3.313s-.835-2.726-.835-4.33.274-3.04.835-4.343 1.278-2.413 2.165-3.34 1.904-1.63 3.065-2.126c1.148-.496 2.335-.743 3.56-.743 1.4 0 2.648.26 3.678.77a6.62 6.62 0 0 1 2.517 2.1h.34v-2.2h5.204v18.938c0 1.722-.26 3.26-.796 4.643-.522 1.37-1.265 2.543-2.204 3.495s-2.074 1.695-3.4 2.204-2.778.756-4.395.756zm.2-14.57a5.55 5.55 0 0 0 1.983-.365 4.94 4.94 0 0 0 1.722-1.082c.496-.483.9-1.056 1.213-1.76.3-.7.456-1.487.456-2.387s-.156-1.695-.456-2.413c-.3-.704-.704-1.304-1.213-1.774a5.27 5.27 0 0 0-1.722-1.083 5.55 5.55 0 0 0-1.983-.365 5.36 5.36 0 0 0-1.956.365 5.05 5.05 0 0 0-1.71 1.096 5.94 5.94 0 0 0-1.213 1.774c-.3.7-.456 1.487-.456 2.387s.157 1.695.456 2.387.704 1.278 1.213 1.76a5.01 5.01 0 0 0 1.709 1.083 5.12 5.12 0 0 0 1.956.378zm27.063 2.245h-.34c-.64 1.03-1.5 1.84-2.582 2.44s-2.322.9-3.704.9c-2.582 0-4.5-.796-5.765-2.374s-1.9-3.7-1.9-6.326V9.756h5.452V21.43c0 1.474.326 2.556.978 3.26s1.604 1.056 2.856 1.056c.743 0 1.4-.157 1.983-.483s1.056-.744 1.46-1.3.704-1.174.913-1.917a8.46 8.46 0 0 0 .313-2.348V9.756h5.452v20.386H81.27v-2.674zM92.003 7c-.47 0-.926-.1-1.356-.274a3.51 3.51 0 0 1-1.122-.743c-.313-.313-.574-.7-.743-1.1a3.38 3.38 0 0 1-.274-1.369 3.38 3.38 0 0 1 .274-1.369 3.76 3.76 0 0 1 .743-1.109c.313-.313.7-.574 1.122-.743.43-.183.887-.274 1.356-.274.965 0 1.8.34 2.5 1.017a3.34 3.34 0 0 1 1.043 2.478 3.36 3.36 0 0 1-1.043 2.478c-.678.678-1.513 1.017-2.5 1.017zm-2.7 23.15V9.756h5.452v20.386h-5.452zm23.347-2.463h-.34c-.495.86-1.278 1.6-2.334 2.204s-2.36.913-3.913.913c-1.304 0-2.543-.274-3.73-.8-1.174-.535-2.217-1.3-3.117-2.243s-1.617-2.1-2.14-3.43-.796-2.8-.796-4.37.26-3.04.796-4.37c.522-1.33 1.24-2.478 2.14-3.43s1.943-1.7 3.117-2.243a8.93 8.93 0 0 1 3.73-.809c1.552 0 2.856.3 3.913.913s1.826 1.343 2.334 2.204h.34L112.3 9.3V.326h5.465V30.13h-5.125v-2.452zm-5.452-1.917a5.51 5.51 0 0 0 2.06-.391 5.07 5.07 0 0 0 1.722-1.135c.496-.495.9-1.1 1.213-1.826.3-.717.457-1.54.457-2.452s-.157-1.735-.457-2.452-.704-1.33-1.213-1.826a5.07 5.07 0 0 0-1.722-1.135 5.51 5.51 0 0 0-2.06-.391 5.29 5.29 0 0 0-2.061.417c-.652.274-1.226.665-1.722 1.16s-.9 1.1-1.213 1.826c-.3.717-.456 1.526-.456 2.413a6.26 6.26 0 0 0 .456 2.413c.3.717.705 1.33 1.213 1.826a5.33 5.33 0 0 0 1.722 1.16c.652.248 1.343.4 2.06.4zm32.267-.522c-.94 1.656-2.217 3-3.808 4.03-1.6 1.017-3.548 1.54-5.843 1.54-1.552 0-2.987-.274-4.304-.8s-2.465-1.3-3.43-2.27c-.965-.965-1.72-2.113-2.27-3.43s-.8-2.765-.8-4.343c0-1.474.26-2.856.796-4.174A10.73 10.73 0 0 1 122 12.325a10.57 10.57 0 0 1 3.352-2.348c1.3-.587 2.713-.874 4.265-.874 1.643 0 3.1.274 4.37.8 1.278.548 2.348 1.3 3.2 2.243s1.513 2.087 1.956 3.4.665 2.726.665 4.252v.496c-.026.17-.04.313-.04.457a2.49 2.49 0 0 0-.039.456h-15.377c.117.835.34 1.54.7 2.14a5.33 5.33 0 0 0 1.29 1.5c.507.404 1.07.7 1.683.874a6.5 6.5 0 0 0 1.878.274c1.252 0 2.282-.287 3.104-.848.822-.574 1.46-1.278 1.93-2.14l4.526 2.23zm-4.956-7.917c-.026-.365-.143-.756-.352-1.2s-.5-.86-.913-1.252-.9-.704-1.5-.952-1.317-.378-2.14-.378c-1.16 0-2.2.34-3.078 1.004s-1.513 1.6-1.878 2.8h9.86v-.013zM9.404 30.807c-1.33 0-2.517-.17-3.56-.496s-1.943-.77-2.7-1.304a8.47 8.47 0 0 1-1.93-1.878C.694 26.425.287 25.707 0 25l4.865-2.087c.47 1.056 1.1 1.84 1.9 2.348s1.67.77 2.648.77c1.004 0 1.787-.183 2.374-.535.587-.365.874-.796.874-1.3 0-.548-.248-1.004-.73-1.356s-1.33-.652-2.517-.94l-2.87-.626c-.64-.143-1.3-.365-1.982-.665a7.78 7.78 0 0 1-1.852-1.16c-.562-.47-1.017-1.043-1.37-1.7-.365-.652-.535-1.435-.535-2.322 0-1.004.2-1.9.64-2.66.43-.782 1.017-1.435 1.774-1.97.743-.535 1.63-.952 2.648-1.252 1.017-.287 2.1-.43 3.274-.43 1.943 0 3.678.378 5.204 1.148s2.648 1.983 3.378 3.64l-4.708 1.917c-.4-.8-.952-1.383-1.7-1.748-.743-.365-1.5-.535-2.243-.535-.783 0-1.46.157-2.035.482-.587.313-.874.73-.874 1.226 0 .47.248.848.73 1.122s1.148.522 1.982.743l3.117.744c2.087.496 3.626 1.3 4.643 2.387a5.51 5.51 0 0 1 1.526 3.887c0 .887-.2 1.735-.626 2.543s-1.004 1.513-1.774 2.14-1.682 1.122-2.752 1.474c-1.096.352-2.283.535-3.587.535z"/><path opacity=".35" d="M38.815 19.708L34.72 19l-2.478-.443.13-.17.157-.21 1.552-1.995-1.304 1.017-.69.548-.535.417-.313-1.59-.04-.21-.665-3.39-1.017 5.19-.535-.417-1.982-1.552 1.552 1.995.287.365-2.49.443-4.187.743.078.013 4.108.73 2.44.43.052.013-.09.117-.196.248-1.552 1.983 1.33-1.03.665-.51.535-.417.326 1.643.026.156.665 3.39 1.017-5.19.535.417 1.995 1.552-1.552-1.996-.287-.365 2.49-.443 4.095-.717.104-.013-.13-.04zm-9.247.026c0-.535.43-.965.965-.965s.965.43.965.965-.43.965-.965.965a.98.98 0 0 1-.965-.965z"/><path d="M34.25 12.312l-4.9 6.913-.574 1.67-.04.13-.417 1.2-1.84 5.388.34-.47 3.013-4.2 1.865-2.595.613-1.8.065-.183.4-1.174 1.617-4.8.183-.56-.326.483zM30.533 20.7a.96.96 0 1 1 0-1.93.96.96 0 0 1 .965.965c.013.522-.43.965-.965.965zm36.95 14.515h.86v4.565h-.86v-4.565zm2.413 0H70.9l1.84 3.065h.052l-.052-.887v-2.178h.86v4.565h-.913l-1.943-3.235h-.052l.052.887v2.348h-.848v-4.565zm9.35 2.06H81.5a.77.77 0 0 1 .026.183 1.27 1.27 0 0 1 .013.222 2.49 2.49 0 0 1-.13.835 1.94 1.94 0 0 1-.417.69 2.05 2.05 0 0 1-.73.509 2.57 2.57 0 0 1-.978.183 2.56 2.56 0 0 1-.939-.183 2.36 2.36 0 0 1-.77-.496 2.41 2.41 0 0 1-.522-.756c-.132-.286-.196-.613-.196-.952s.065-.665.196-.952.3-.548.522-.756.47-.378.77-.496a2.56 2.56 0 0 1 .939-.183c.365 0 .704.065 1 .196a2.22 2.22 0 0 1 .757.535l-.6.587a1.66 1.66 0 0 0-1.148-.495c-.2 0-.404.04-.6.117a1.6 1.6 0 0 0-.496.313c-.144.13-.248.3-.34.496a1.71 1.71 0 0 0-.13.652c0 .235.04.456.13.652a1.34 1.34 0 0 0 .34.496 1.52 1.52 0 0 0 .496.313 1.54 1.54 0 0 0 .6.117 1.67 1.67 0 0 0 .613-.104 1.21 1.21 0 0 0 .43-.274.99.99 0 0 0 .222-.287c.065-.117.104-.248.143-.4h-1.435v-.77zm5.323 2.61c-.274 0-.5-.04-.73-.13s-.404-.2-.56-.378-.274-.365-.352-.6c-.1-.235-.13-.5-.13-.8v-2.752h.86v2.804c0 .157.013.3.052.417a.85.85 0 0 0 .17.326.81.81 0 0 0 .287.222c.117.052.248.078.4.078a.97.97 0 0 0 .404-.078.81.81 0 0 0 .287-.222c.078-.1.13-.2.17-.326.04-.13.052-.274.052-.417v-2.804h.86v2.752c0 .287-.04.548-.13.782a1.9 1.9 0 0 1-.352.613c-.157.17-.34.3-.56.4s-.443.13-.717.13zm3.233-4.67h.86v4.565h-.86v-4.565zm2.427 0h1.552c.365 0 .7.052.978.17a2.16 2.16 0 0 1 .743.47c.208.2.365.443.47.73a2.64 2.64 0 0 1 .157.926c0 .34-.052.652-.157.94a1.81 1.81 0 0 1-.469.717c-.2.196-.456.352-.743.47s-.613.17-.978.17H90.23v-4.6zm1.513 3.756c.248 0 .47-.04.665-.104s.352-.17.483-.3a1.22 1.22 0 0 0 .287-.47c.065-.183.1-.378.1-.6s-.026-.417-.1-.6-.156-.34-.287-.47a1.38 1.38 0 0 0-.483-.3 2.1 2.1 0 0 0-.665-.104h-.64v2.935h.64v.013zm4.6-2.947v1.056h1.84v.822h-1.84v1.056h2.035v.822h-2.895v-4.565h2.895v.822h-2.035v-.013zm4.865 3.86a2.01 2.01 0 0 1-.561-.078c-.182-.052-.34-.143-.495-.248s-.274-.248-.392-.404a2.21 2.21 0 0 1-.26-.56l.808-.326c.065.235.17.417.313.574s.34.222.587.222a.87.87 0 0 0 .26-.04c.078-.026.156-.052.222-.104a.49.49 0 0 0 .156-.17c.04-.066.052-.144.052-.235s-.013-.157-.04-.235-.078-.13-.156-.196c-.066-.065-.157-.117-.274-.17s-.248-.117-.418-.17l-.287-.104c-.117-.04-.247-.104-.378-.17a1.75 1.75 0 0 1-.34-.26 1.18 1.18 0 0 1-.248-.365c-.065-.143-.104-.3-.104-.47a1.2 1.2 0 0 1 .104-.496 1.26 1.26 0 0 1 .3-.404 1.4 1.4 0 0 1 .47-.274 1.75 1.75 0 0 1 .6-.104 1.66 1.66 0 0 1 .6.091c.17.065.313.143.43.235s.2.196.287.313a1.11 1.11 0 0 1 .157.326l-.757.326a.68.68 0 0 0-.235-.34c-.117-.104-.274-.157-.47-.157-.183 0-.34.04-.47.13a.38.38 0 0 0-.182.339c0 .13.065.248.182.352.118.1.313.183.574.274l.287.1a3.54 3.54 0 0 1 .496.222 1.49 1.49 0 0 1 .391.3c.104.117.196.248.248.4a1.48 1.48 0 0 1 .091.509 1.29 1.29 0 0 1-.143.613 1.45 1.45 0 0 1-.366.43c-.144.117-.313.196-.508.248a1.49 1.49 0 0 1-.535.091zm4.342-4.67h.913l.705 2.674.104.496h.052l.13-.496.653-2.06h.808l.665 2.06.13.483h.052l.1-.483.666-2.674h.913l-1.213 4.578h-.835l-.718-2.204-.13-.5h-.052l-.13.5-.717 2.204h-.835l-1.252-4.578zm7.957.81v1.056h1.84v.822h-1.84v1.056h2.035v.822h-2.896v-4.565h2.896v.822h-2.035v-.013zm6.235 3.756v-3.756h-1.28v-.8h3.418v.822h-1.28v3.743h-.86zm3.39-4.565h1.67a1.88 1.88 0 0 1 .626.104c.183.078.352.17.483.3s.235.274.313.456.104.365.104.574a1.15 1.15 0 0 1-.078.43 1.24 1.24 0 0 1-.21.365 1.61 1.61 0 0 1-.313.287c-.117.078-.248.144-.378.196v.04l1.226 1.76v.052h-1l-1.187-1.722h-.404v1.722h-.86v-4.565zm1.656 2.06a.69.69 0 0 0 .483-.183c.13-.118.182-.274.182-.456a.74.74 0 0 0-.039-.235.51.51 0 0 0-.13-.209c-.052-.065-.13-.104-.2-.143a.67.67 0 0 0-.287-.052h-.808v1.278h.808zm4.617 2.6a1.89 1.89 0 0 1-.73-.13c-.222-.1-.404-.2-.56-.378s-.274-.365-.352-.6c-.1-.235-.13-.5-.13-.8v-2.752h.86v2.804c0 .157.013.3.052.417a.88.88 0 0 0 .17.326.81.81 0 0 0 .287.222.95.95 0 0 0 .391.078.98.98 0 0 0 .405-.078.82.82 0 0 0 .287-.222c.078-.1.13-.2.17-.326a1.47 1.47 0 0 0 .052-.417v-2.804h.86v2.752c0 .287-.04.548-.13.782a1.89 1.89 0 0 1-.353.613 1.54 1.54 0 0 1-.56.39c-.22.1-.444.13-.718.13zm4.644 0a2 2 0 0 1-.56-.078 1.77 1.77 0 0 1-.496-.248c-.156-.104-.274-.248-.4-.404-.105-.157-.196-.352-.26-.56l.8-.326c.065.235.17.417.313.574s.34.222.586.222a.86.86 0 0 0 .26-.04c.08-.026.157-.052.222-.104a.5.5 0 0 0 .157-.169.44.44 0 0 0 .052-.235c0-.09-.013-.157-.04-.235s-.08-.13-.157-.196a.89.89 0 0 0-.274-.17c-.117-.052-.248-.117-.417-.17l-.287-.104a3.09 3.09 0 0 1-.378-.169 1.65 1.65 0 0 1-.339-.261 1.19 1.19 0 0 1-.248-.365 1.13 1.13 0 0 1-.105-.47c0-.183.04-.352.105-.496a1.25 1.25 0 0 1 .3-.404c.13-.117.287-.2.47-.274a1.76 1.76 0 0 1 .6-.104c.235 0 .43.026.6.1s.313.143.43.235.208.196.287.313.13.222.156.326l-.756.326a.68.68 0 0 0-.235-.339c-.118-.104-.274-.157-.47-.157-.182 0-.34.04-.47.13-.118.1-.183.196-.183.34 0 .13.065.248.183.352.117.1.313.183.574.274l.287.1c.182.065.352.143.495.222a1.49 1.49 0 0 1 .39.3 1.23 1.23 0 0 1 .248.391 1.48 1.48 0 0 1 .092.509 1.29 1.29 0 0 1-.144.613 1.46 1.46 0 0 1-.365.431c-.144.117-.313.196-.5.248-.17.065-.352.1-.535.1zm3.82-.105v-3.756h-1.278v-.8H140v.822h-1.278v3.743h-.86z"/></g><defs><clipPath id="A"><path fill="#fff" d="M0 0h140v39.884H0z"/></clipPath></defs></svg>